<?xml version="1.0" encoding="UTF-8"?>
<svg width="18px" height="20px" viewBox="0 0 18 20" version="1.1" xmlns="http://www.w3.org/2000/svg" xmlns:xlink="http://www.w3.org/1999/xlink">
    <!-- Generator: sketchtool 52.5 (67469) - http://www.bohemiancoding.com/sketch -->
    <title>9A8E3591-6BE1-4CE6-B80D-CF4C29215DAD</title>
    <desc>Created with sketchtool.</desc>
    <g id="Page-1" stroke="none" stroke-width="1" fill="none" fill-rule="evenodd">
        <g id="Style-guide/-Тестовое" transform="translate(-228.000000, -1000.000000)">
            <rect fill="#1C2127" x="0" y="0" width="1920" height="6342"></rect>
            <g id="2_icon/access/lock" transform="translate(228.000000, 1001.000000)">
                <g id="Group">
                    <rect id="Rectangle" x="0" y="0" width="18" height="18"></rect>
                    <circle id="Oval-12" fill="#FFFFFF" cx="9" cy="12" r="1"></circle>
                    <path d="M8.66666667,11.6666667 L8.66666667,11.6666667 C9.0348565,11.6666667 9.33333333,11.9651435 9.33333333,12.3333333 L9.33333333,13.6666667 C9.33333333,14.0348565 9.0348565,14.3333333 8.66666667,14.3333333 L8.66666667,14.3333333 C8.29847683,14.3333333 8,14.0348565 8,13.6666667 L8,12.3333333 C8,11.9651435 8.29847683,11.6666667 8.66666667,11.6666667 Z" id="Rectangle-18" fill="#FFFFFF"></path>
                    <path d="M3.21,7.66666667 L14.79,7.66666667 C15.4582645,7.66666667 16,8.20840212 16,8.87666667 L16,15.79 C16,16.4582645 15.4582645,17 14.79,17 L3.21,17 C2.54173545,17 2,16.4582645 2,15.79 L2,8.87666667 C2,8.20840212 2.54173545,7.66666667 3.21,7.66666667 Z" id="Rectangle-17" stroke="#FFFFFF" stroke-width="2.42" stroke-linecap="round" stroke-linejoin="round"></path>
                    <path d="M6,0.333333333 L9.78279011,0.333333333 C11.0073213,0.333333333 12,1.4050293 12,2.72703327 L12,5.27296673 C12,6.5949707 11.0073213,7.66666667 9.78279011,7.66666667 C9.39330126,7.66666667 9.10118462,7.66666667 8.90644019,7.66666667" id="Rectangle-17-Copy" stroke="#FFFFFF" stroke-width="2.42" stroke-linecap="round" stroke-linejoin="round" transform="translate(9.000000, 4.000000) rotate(-90.000000) translate(-9.000000, -4.000000) "></path>
                    <path d="M12.6666667,4.33333333 L12.6666667,7.66666667" id="Path" stroke="#FFFEFE" stroke-width="2.42" stroke-linejoin="round"></path>
                </g>
            </g>
        </g>
    </g>
</svg>