<?xml version="1.0" encoding="UTF-8"?>
<svg width="82px" height="57px" viewBox="0 0 82 57" version="1.1" xmlns="http://www.w3.org/2000/svg" xmlns:xlink="http://www.w3.org/1999/xlink">
    <!-- Generator: sketchtool 52.5 (67469) - http://www.bohemiancoding.com/sketch -->
    <title>C33213D3-7FA6-4D14-8DE4-FF6199B8CB68</title>
    <desc>Created with sketchtool.</desc>
    <defs>
        <filter x="-15.6%" y="-23.1%" width="131.2%" height="146.2%" filterUnits="objectBoundingBox" id="filter-1">
            <feOffset dx="0" dy="2" in="SourceAlpha" result="shadowOffsetOuter1"></feOffset>
            <feGaussianBlur stdDeviation="2" in="shadowOffsetOuter1" result="shadowBlurOuter1"></feGaussianBlur>
            <feColorMatrix values="0 0 0 0 0   0 0 0 0 0   0 0 0 0 0  0 0 0 0.5 0" type="matrix" in="shadowBlurOuter1" result="shadowMatrixOuter1"></feColorMatrix>
            <feMerge>
                <feMergeNode in="shadowMatrixOuter1"></feMergeNode>
                <feMergeNode in="SourceGraphic"></feMergeNode>
            </feMerge>
        </filter>
        <linearGradient x1="50%" y1="100%" x2="50%" y2="9.34801652e-15%" id="linearGradient-2">
            <stop stop-color="#F15D44" offset="0.1198743%"></stop>
            <stop stop-color="#EA344A" offset="100%"></stop>
        </linearGradient>
        <linearGradient x1="50%" y1="100%" x2="50%" y2="-1.05394406e-14%" id="linearGradient-3">
            <stop stop-color="#F15D44" offset="0.1198743%"></stop>
            <stop stop-color="#EA344A" offset="100%"></stop>
        </linearGradient>
    </defs>
    <g id="Page-1" stroke="none" stroke-width="1" fill="none" fill-rule="evenodd">
        <g id="Style-guide/-Тестовое" transform="translate(-122.000000, -156.000000)">
            <rect fill="#1C2127" x="0" y="0" width="1920" height="6342"></rect>
            <g id="LOGO-Copy" filter="url(#filter-1)" transform="translate(123.000000, 158.000000)">
                <g id="Group" transform="translate(18.000000, 0.000000)">
                    <path d="M15.8332345,0.0873442623 L15.4942268,0.0873442623 C14.4657603,0.0873442623 13.6289691,0.772754098 13.5803351,1.63406557 C13.5789046,1.63527869 13.5760438,1.71534426 13.5760438,1.71534426 L13.5760438,8.98432787 L13.5760438,20.0066885 C13.5760438,20.6726885 12.9724098,21.217377 12.2028479,21.2707541 L12.2028479,34.6174426 C12.2028479,35.9166885 13.4458763,36.9708852 14.9778479,36.9708852 C16.5098196,36.9708852 17.7528479,35.9166885 17.7528479,34.6174426 L17.7528479,8.98432787 L17.7528479,1.71534426 C17.7528479,0.81642623 16.8931701,0.0873442623 15.8332345,0.0873442623 Z" id="Path" fill="url(#linearGradient-2)"></path>
                    <path d="M4.27550258,20.2032131 L4.27550258,3.92927869 C4.27407216,3.92806557 4.27264175,3.92806557 4.26978093,3.92685246 C4.23115979,3.15531148 3.39007732,2.53662295 2.35445876,2.53662295 L2.01545103,2.53662295 C0.955515464,2.53662295 0.0958376289,3.18321311 0.0958376289,3.98022951 L0.0586469072,33.1592787 C0.0586469072,34.3117377 1.30167526,35.2470492 2.83364691,35.2470492 C4.36561856,35.2470492 5.60864691,34.3129508 5.60864691,33.1592787 L5.60864691,21.3204918 C4.85911082,21.2598361 4.27550258,20.783082 4.27550258,20.2032131 Z" id="Path" fill="url(#linearGradient-2)"></path>
                    <path d="M39.7039562,2.53540984 L39.4636469,2.53540984 C38.458067,2.53540984 37.6341495,3.11770492 37.552616,3.85891803 C37.5497552,3.86255738 37.5468943,3.86498361 37.5440335,3.86862295 L37.5440335,3.97901639 L37.5440335,10.4279344 L37.5440335,20.2032131 C37.5440335,20.8182623 36.8874742,21.3180656 36.0735696,21.3289836 L36.0735696,33.1617049 C36.0735696,34.3141639 37.3165979,35.2494754 38.8485696,35.2494754 C40.3805412,35.2494754 41.6235696,34.315377 41.6235696,33.1617049 L41.6235696,10.4279344 L41.6235696,5.71013115 L41.6235696,3.97901639 C41.6235696,3.182 40.7638918,2.53540984 39.7039562,2.53540984 Z" id="Path" fill="url(#linearGradient-3)"></path>
                    <path d="M22.2715206,20.1680328 L22.2114433,12.0025574 L22.2114433,8.36806557 C22.2114433,7.46914754 21.3517655,6.74006557 20.2918299,6.74006557 L20.0958634,6.74006557 C19.0359278,6.74006557 18.17625,7.46914754 18.17625,8.36806557 L18.17625,9.15052459 L18.17625,15.6358361 L18.17625,29.1317377 C18.17625,30.4516066 19.449317,31.5628197 21.0056057,31.5373443 C22.5132603,31.513082 23.7276804,30.4685902 23.7276804,29.1839016 L23.7276804,21.4357377 C22.9209278,21.417541 22.2715206,20.857082 22.2715206,20.1680328 Z" id="Path" fill="url(#linearGradient-3)"></path>
                    <path d="M10.2117139,20.0066885 L10.2117139,7.01059016 L10.2117139,6.86137705 C10.2117139,6.27422951 9.65099227,5.79868852 8.95867268,5.79868852 L8.89001289,5.79868852 C8.1976933,5.79868852 7.63697165,6.27422951 7.63697165,6.86137705 L7.63697165,7.01059016 L7.63697165,8.01504918 L7.63697165,20.0066885 C7.63697165,20.7054426 6.97039948,21.2719672 6.14791237,21.2768197 L6.14791237,29.1887541 C6.14791237,30.488 7.39094072,31.5421967 8.92291237,31.5421967 C10.454884,31.5421967 11.6979124,30.488 11.6979124,29.1887541 L11.6979124,21.2768197 C10.8768557,21.2707541 10.2117139,20.7042295 10.2117139,20.0066885 Z" id="Path" fill="url(#linearGradient-3)"></path>
                    <path d="M34.181134,20.0066885 L34.181134,7.33085246 L34.181134,7.00816393 L34.181134,6.79829508 C34.181134,6.19295082 33.601817,5.70163934 32.8880412,5.70163934 C32.1742655,5.70163934 31.5949485,6.19295082 31.5949485,6.79829508 L31.5949485,7.32963934 C31.5949485,7.33691803 31.5963789,7.34298361 31.5963789,7.34904918 L31.5963789,20.0042623 C31.5963789,20.699377 30.9383892,21.2622623 30.1230541,21.2731803 L30.1230541,29.1851148 C30.1230541,30.4843607 31.3660825,31.5385574 32.8980541,31.5385574 C34.4300258,31.5385574 35.6730541,30.4843607 35.6730541,29.1851148 L35.6730541,21.2743934 C34.8491366,21.2731803 34.181134,20.7054426 34.181134,20.0066885 Z" id="Path" fill="url(#linearGradient-3)"></path>
                    <path d="M29.7325515,21.2756066 C28.9057732,21.2756066 28.2349098,20.7066557 28.2349098,20.0054754 L28.2349098,2.06593443 L28.2349098,1.56613115 L28.2349098,1.54672131 C28.2349098,0.937737705 27.652732,0.444 26.9346649,0.444 C26.2165979,0.444 25.6344201,0.937737705 25.6344201,1.54672131 L25.6344201,2.06593443 L25.6344201,2.06714754 L25.6344201,20.1668197 C25.6344201,20.8485902 25.0007474,21.4029836 24.2068686,21.4333115 L24.2068686,34.6150164 C24.2068686,35.9142623 25.4498969,36.968459 26.9818686,36.968459 C28.5138402,36.968459 29.7568686,35.9142623 29.7568686,34.6150164 L29.7568686,21.2756066 L29.7325515,21.2756066 Z" id="Path" fill="url(#linearGradient-3)"></path>
                </g>
                <text id="PIANOSOLO" font-family="Montserrat-SemiBold, Montserrat" font-size="12" font-weight="500" letter-spacing="-0.1224" fill="#FFFFFF">
                    <tspan x="2.11136562" y="49">PIANOSOLO</tspan>
                </text>
            </g>
        </g>
    </g>
</svg>