<?xml version="1.0" encoding="UTF-8"?>
<svg width="352px" height="368px" viewBox="0 0 352 368" version="1.1" xmlns="http://www.w3.org/2000/svg" xmlns:xlink="http://www.w3.org/1999/xlink">
    <!-- Generator: sketchtool 52.5 (67469) - http://www.bohemiancoding.com/sketch -->
    <title>FA78AFA9-6228-44B3-8234-03DC88EAAD8F</title>
    <desc>Created with sketchtool.</desc>
    <defs>
        <linearGradient x1="10.1756415%" y1="89.8190763%" x2="91.4102109%" y2="8.58450695%" id="linearGradient-1">
            <stop stop-color="#F15D44" offset="0%"></stop>
            <stop stop-color="#EA344A" offset="100%"></stop>
        </linearGradient>
        <path d="M58.2273606,131.140409 C47.4068401,120.742565 47.4068401,103.897509 58.2273606,93.4996654 L97.3411152,55.9137918 C108.161636,45.515948 125.69145,45.515948 136.51197,55.9137918 C147.332491,66.3116357 147.332491,83.1566914 136.51197,93.5545353 L97.3982156,131.140409 C86.5776952,141.538253 69.0336059,141.538253 58.2273606,131.140409 Z" id="path-2"></path>
        <filter x="-10.6%" y="-8.8%" width="121.2%" height="122.0%" filterUnits="objectBoundingBox" id="filter-3">
            <feOffset dx="0" dy="2" in="SourceAlpha" result="shadowOffsetOuter1"></feOffset>
            <feGaussianBlur stdDeviation="3" in="shadowOffsetOuter1" result="shadowBlurOuter1"></feGaussianBlur>
            <feColorMatrix values="0 0 0 0 0   0 0 0 0 0   0 0 0 0 0  0 0 0 0.2 0" type="matrix" in="shadowBlurOuter1"></feColorMatrix>
        </filter>
    </defs>
    <g id="Page-1" stroke="none" stroke-width="1" fill="none" fill-rule="evenodd">
        <g id="Test_task" transform="translate(-1088.000000, -743.000000)">
            <rect fill="#1C2127" x="0" y="0" width="1440" height="4798"></rect>
            <g id="Group-9-Copy" transform="translate(1088.000000, 743.000000)">
                <g id="Path">
                    <use fill="black" fill-opacity="1" filter="url(#filter-3)" xlink:href="#path-2"></use>
                    <use fill="url(#linearGradient-1)" fill-rule="evenodd" xlink:href="#path-2"></use>
                </g>
                <path d="M8.37873606,269.56342 C-2.44178439,259.165576 -2.44178439,242.32052 8.37873606,231.922677 L241.391078,8.02609665 C252.211599,-2.37174721 269.741413,-2.37174721 280.561933,8.02609665 C291.382454,18.4239405 291.382454,35.2689963 280.561933,45.6668401 L47.5495911,269.56342 C36.7290706,279.961264 19.1992565,279.961264 8.37873606,269.56342 Z" id="Path" fill="url(#linearGradient-1)"></path>
                <path d="M97.5837918,274.021599 C86.7632714,263.623755 86.7632714,246.778699 97.5837918,236.380855 L246.030483,93.7328625 C256.851004,83.3350186 274.380818,83.3350186 285.201338,93.7328625 C296.021859,104.130706 296.021859,120.975762 285.201338,131.373606 L136.740372,274.021599 C125.934126,284.419442 108.390037,284.419442 97.5837918,274.021599 Z" id="Path" fill="url(#linearGradient-1)"></path>
                <path d="M101.83777,359.357993 C91.0172491,348.960149 91.0172491,332.115093 101.83777,321.717249 L334.850112,97.8069517 C345.670632,87.4091078 363.200446,87.4091078 374.020967,97.8069517 C384.841487,108.204796 384.841487,125.049851 374.020967,135.447695 L140.994349,359.357993 C130.188104,369.755836 112.644015,369.755836 101.83777,359.357993 Z" id="Path" fill="url(#linearGradient-1)"></path>
                <path d="M246.27316,311.840669 C235.452639,301.442825 235.452639,284.59777 246.27316,274.199926 L285.386914,236.614052 C296.207435,226.216208 313.737249,226.216208 324.55777,236.614052 C335.37829,247.011896 335.37829,263.856952 324.55777,274.254796 L285.444015,311.840669 C274.623494,322.224796 257.079405,322.224796 246.27316,311.840669 Z" id="Path" fill="url(#linearGradient-1)"></path>
            </g>
            <g id="XMLID_318_" opacity="0.5" transform="translate(0.000000, 86.000000)" stroke="#F15D44" stroke-dasharray="0,2.8347" stroke-linecap="round" stroke-linejoin="round">
                <g id="XMLID_332_">
                    <g id="XMLID_360_">
                        <g id="XMLID_513_" transform="translate(0.000000, 155.762694)" stroke-width="1.1339">
                            <path d="M1388.09384,207.769994 C1388.09384,207.769994 1392.79003,180.009387 1279.59453,132.293181 C1229.3971,111.127635 1108.23849,129.191628 1037.74849,78.5272418 C896.454366,-23.0060279 867.460485,99.4882894 782.41072,87.4740304 C669.340866,71.4891014 670.471721,152.674818 556.239599,167.006721 C257.065467,204.532108 0.235594917,565.77787 0.235594917,565.77787" id="XMLID_518_"></path>
                            <path d="M1388.09384,201.82251 C1388.09384,201.82251 1390.04142,172.664499 1278.36943,127.231855 C1259.20771,119.426847 1230.55937,117.347784 1198.89541,115.95038 C1145.2426,113.598653 1081.33355,111.263967 1036.69617,81.1516331 C1010.35666,63.3943879 987.818075,52.573034 967.94957,46.5744253 C892.449252,23.9092275 858.979068,84.8325976 804.462404,90.5244593 C796.891954,91.3083684 788.944552,91.2742854 780.463135,89.8598407 C668.461311,71.2164374 667.251924,145.977507 554.276308,162.967885 C411.207368,183.945974 281.897171,283.911425 177.387266,371.760369 C67.128845,464.892178 0.219888589,556.217588 0.219888589,556.217588" id="XMLID_548_"></path>
                            <path d="M1388.09384,195.875025 C1388.09384,195.875025 1387.2457,165.387778 1277.16005,122.170529 C1257.52714,114.46777 1228.75314,112.712495 1197.52896,112.507997 C1144.28451,112.150125 1080.7053,112.20125 1035.65955,83.7760244 C1009.2258,67.0923938 986.483037,56.5948285 966.316112,50.2894728 C890.53308,26.9085318 857.581205,90.4392518 802.373462,93.6600957 C794.818719,94.1031747 786.934142,93.8475522 778.51555,92.2286095 C667.581757,70.9267318 664.094952,139.672151 552.328724,158.929049 C411.552908,183.179106 287.944108,287.779846 179.85316,371.283207 C65.8880451,459.319607 0.219888589,546.657305 0.219888589,546.657305" id="XMLID_547_"></path>
                            <path d="M1388.09384,189.9105 C1388.09384,189.9105 1384.41856,158.162181 1275.93495,117.092161 C1255.81515,109.47461 1226.93121,108.094248 1196.16251,109.048572 C1143.32643,110.701598 1080.07704,113.10445 1034.62293,86.3833743 C1008.09494,70.7733583 985.147999,60.548457 964.666948,53.9874787 C888.679734,29.6522137 856.214754,96.079989 800.284521,96.7786905 C792.76119,96.8809396 784.908026,96.420819 776.567966,94.5803368 C666.702203,70.6199848 660.922274,133.145256 550.365433,154.873171 C411.835621,182.105492 294.100988,291.767558 182.303347,370.789003 C64.7414832,453.883367 0.219888589,537.079981 0.219888589,537.079981" id="XMLID_546_"></path>
                            <path d="M1388.09384,183.963015 C1388.09384,183.963015 1381.56001,151.038833 1274.70986,112.030835 C1254.11886,104.515533 1225.10928,103.493042 1194.78036,105.606189 C1142.33693,109.270112 1079.44879,114.041732 1033.58631,89.0077656 C1006.96409,74.4713643 983.828667,64.55321 963.033489,57.7025262 C886.794974,32.5833521 854.895423,101.771851 798.195579,99.9143269 C790.703661,99.6757459 782.897616,98.9940858 774.620381,96.9491056 C665.822648,70.3302793 657.749596,126.601319 548.402142,150.817294 C412.134042,180.997794 300.273575,295.755269 184.753534,370.2948 C63.6263339,448.46417 0.204182261,527.502657 0.204182261,527.502657" id="XMLID_540_"></path>
                            <path d="M1388.09384,178.015531 C1388.09384,178.015531 1378.67004,143.96661 1273.50047,106.969509 C1252.42258,99.5564554 1223.28734,98.8918368 1193.41391,102.163805 C1141.36314,107.872708 1078.83624,114.961973 1032.5497,91.6151154 C1005.84894,78.1523287 982.49363,68.557963 961.400031,61.4175736 C884.910215,35.5315319 853.591797,107.497795 796.122344,103.067005 C788.661838,102.487594 780.887206,101.584394 772.704209,99.3349159 C664.974507,70.0576152 654.60833,120.057382 546.48597,146.795499 C412.479581,179.924179 306.493281,299.794105 187.266546,369.834679 C62.57401,443.079055 0.251301245,517.959415 0.251301245,517.959415" id="XMLID_539_"></path>
                            <path d="M1388.09384,172.051005 C1388.09384,172.051005 1375.74867,136.945511 1272.27538,101.891141 C1250.71059,94.5803368 1221.46541,94.2906312 1192.03175,98.7043803 C1140.35793,106.458264 1078.2237,115.865173 1031.49737,94.2224652 C1004.70238,81.8162517 981.142885,72.5456745 959.735161,65.1155796 C882.994043,38.4626703 852.272466,113.257823 794.017696,106.1856 C786.588603,105.2824 778.845383,104.157661 770.740918,101.703685 C664.079246,69.7679097 651.435652,113.496404 544.506972,142.739622 C412.762295,178.782399 312.681574,303.8159 189.701027,369.340475 C61.474567,437.659857 0.219888589,508.382091 0.219888589,508.382091" id="XMLID_538_"></path>
                        </g>
                        <g id="XMLID_447_" transform="translate(54.574170, 238.581030)" stroke-width="1.0006">
                            <path d="M1349.58724,418.491533 C1349.58724,418.491533 1218.28234,184.375376 1118.07597,239.981798 C1013.03205,298.280777 913.987947,290.220146 898.768515,217.146185 C882.308283,138.141781 812.100998,127.814631 773.479138,129.723279 C718.506991,132.432878 660.032332,-23.1730778 552.255511,21.0155372 C443.614841,65.9028537 420.039643,270.741709 256.521065,221.781474 C106.729816,177.14978 33.4283844,114.062139 14.2195455,136.045676" id="XMLID_464_"></path>
                            <path d="M1349.58724,425.785296 C1349.58724,425.785296 1216.77453,186.198817 1116.08127,242.964061 C1008.86987,303.410269 907.878185,290.782516 894.402156,214.862624 C879.810977,132.637376 807.797464,126.383145 768.955716,129.740321 C713.528085,134.528983 654.582237,-26.9222083 546.177162,16.1757505 C437.20666,59.73383 414.715198,275.070251 250.427009,225.956642 C95.2799034,179.723046 27.5228052,116.073036 14.7064417,130.745769" id="XMLID_460_"></path>
                            <path d="M1349.58724,433.062017 C1349.58724,433.062017 1215.28243,188.022258 1114.10227,245.946324 C1004.73911,308.539761 901.78413,291.378968 890.051503,212.579062 C877.329378,127.167054 803.525343,125.019825 764.448,129.757362 C708.580592,136.710295 649.147847,-30.6542973 540.130226,11.3530054 C430.845597,53.5818477 409.437872,279.398792 244.364367,230.13181 C83.861403,182.313355 21.6329323,118.100975 15.2404568,125.428821" id="XMLID_459_"></path>
                            <path d="M1349.58724,440.35578 C1349.58724,440.35578 1213.80604,189.86274 1112.10757,248.928587 C1000.59264,313.686295 895.674368,291.992462 885.669438,210.295501 C874.816365,121.696732 799.221809,123.537214 759.908871,129.774404 C703.585979,138.721192 643.682045,-34.3863862 534.051877,6.51321885 C424.437415,47.4128239 404.113427,283.727334 238.270312,234.306978 C72.4271964,184.886622 15.727353,120.128913 15.727353,120.128913" id="XMLID_446_"></path>
                        </g>
                    </g>
                    <g id="XMLID_333_" transform="translate(1166.582179, 460.805582)" stroke-width="1.0006">
                        <path d="M235.58453,199.044745 C235.58453,199.044745 100.38446,-31.5779034 0.931992217,26.2950378" id="XMLID_340_"></path>
                        <path d="M236.574028,208.587986 C236.574028,208.587986 101.075538,-31.969858 0.507921366,26.4995358" id="XMLID_339_"></path>
                        <path d="M237.579233,218.131227 C237.579233,218.131227 101.798029,-32.3618125 0.0995568428,26.7040338" id="XMLID_315_"></path>
                    </g>
                </g>
            </g>
        </g>
    </g>
</svg>